<?xml version="1.0" encoding="utf-8"?>
<!-- Generator: Adobe Illustrator 16.0.0, SVG Export Plug-In . SVG Version: 6.00 Build 0)  -->
<!DOCTYPE svg PUBLIC "-//W3C//DTD SVG 1.1//EN" "http://www.w3.org/Graphics/SVG/1.1/DTD/svg11.dtd">
<svg version="1.1" id="Capa_1" xmlns="http://www.w3.org/2000/svg" xmlns:xlink="http://www.w3.org/1999/xlink" x="0px" y="0px"
	 width="100px" height="100px" viewBox="0 0 100 100" enable-background="new 0 0 100 100" xml:space="preserve">
<g>
	<g>
		<path fill="#E5007D" d="M14.548,67.773c0.172,0.377,0.334,0.765,0.49,1.16c0.157-0.405,0.322-0.798,0.496-1.182
			c0.176-0.381,0.354-0.752,0.539-1.111l5.16-10.165c0.092-0.175,0.187-0.312,0.282-0.408c0.097-0.096,0.206-0.167,0.324-0.214
			c0.12-0.046,0.256-0.068,0.407-0.068s0.328,0,0.53,0h3.56v20.089h-4.11V64.312c0-0.561,0.028-1.168,0.082-1.821l-5.324,10.334
			c-0.166,0.322-0.391,0.565-0.668,0.729c-0.283,0.168-0.602,0.25-0.961,0.25h-0.635c-0.359,0-0.679-0.082-0.958-0.25
			c-0.281-0.164-0.504-0.407-0.67-0.729L7.74,62.477c0.036,0.322,0.062,0.642,0.082,0.959c0.018,0.317,0.028,0.609,0.028,0.876
			v11.562H3.738V55.785h3.56c0.202,0,0.379,0,0.532,0c0.151,0,0.287,0.022,0.405,0.068c0.12,0.047,0.229,0.118,0.326,0.214
			c0.096,0.097,0.19,0.233,0.282,0.408l5.173,10.206C14.201,67.032,14.379,67.396,14.548,67.773z"/>
		<path fill="#E5007D" d="M38.02,72.189c0.623,0,1.184-0.104,1.675-0.311c0.491-0.207,0.91-0.504,1.249-0.891
			c0.34-0.386,0.601-0.857,0.78-1.413c0.179-0.558,0.269-1.188,0.269-1.897V55.771h4.663v11.907c0,1.233-0.2,2.364-0.601,3.394
			c-0.399,1.03-0.971,1.919-1.718,2.663c-0.745,0.745-1.651,1.324-2.718,1.738c-1.067,0.414-2.268,0.62-3.6,0.62
			c-1.344,0-2.549-0.206-3.616-0.62c-1.066-0.414-1.973-0.993-2.718-1.738c-0.745-0.744-1.315-1.633-1.71-2.663
			c-0.396-1.029-0.594-2.16-0.594-3.394V55.771h4.663v11.894c0,0.708,0.091,1.341,0.27,1.897s0.438,1.03,0.778,1.42
			c0.342,0.392,0.757,0.69,1.249,0.897C36.833,72.085,37.393,72.189,38.02,72.189z"/>
		<path fill="#E5007D" d="M60.688,59.854c-0.138,0.221-0.283,0.387-0.435,0.497s-0.346,0.165-0.586,0.165
			c-0.213,0-0.44-0.066-0.684-0.199c-0.243-0.134-0.52-0.283-0.827-0.448c-0.309-0.165-0.662-0.315-1.057-0.449
			c-0.394-0.133-0.847-0.199-1.352-0.199c-0.875,0-1.525,0.186-1.952,0.558c-0.428,0.373-0.641,0.878-0.641,1.512
			c0,0.404,0.128,0.74,0.385,1.008c0.258,0.266,0.596,0.495,1.014,0.689c0.419,0.192,0.897,0.37,1.436,0.53
			c0.539,0.161,1.088,0.341,1.648,0.539c0.562,0.197,1.11,0.43,1.649,0.696c0.538,0.267,1.017,0.607,1.435,1.021
			c0.419,0.415,0.757,0.919,1.015,1.512c0.257,0.593,0.387,1.309,0.387,2.146c0,0.929-0.161,1.797-0.483,2.607
			c-0.322,0.809-0.79,1.516-1.4,2.117c-0.611,0.602-1.366,1.076-2.264,1.422c-0.896,0.344-1.915,0.516-3.054,0.516
			c-0.627,0-1.263-0.062-1.912-0.192c-0.649-0.128-1.277-0.311-1.884-0.545c-0.606-0.235-1.179-0.513-1.711-0.835
			c-0.533-0.32-0.999-0.681-1.394-1.075l1.38-2.181c0.101-0.165,0.243-0.299,0.428-0.399c0.184-0.102,0.381-0.152,0.592-0.152
			c0.276,0,0.555,0.087,0.836,0.263c0.281,0.174,0.599,0.368,0.952,0.579c0.354,0.212,0.762,0.404,1.221,0.58
			c0.461,0.173,1.003,0.262,1.628,0.262c0.847,0,1.504-0.187,1.974-0.559c0.47-0.373,0.703-0.964,0.703-1.773
			c0-0.47-0.128-0.85-0.385-1.146c-0.26-0.294-0.598-0.538-1.016-0.73c-0.419-0.193-0.894-0.363-1.428-0.511s-1.08-0.31-1.643-0.49
			c-0.561-0.179-1.108-0.399-1.641-0.662c-0.534-0.262-1.011-0.607-1.429-1.034c-0.419-0.427-0.757-0.961-1.014-1.601
			c-0.256-0.64-0.388-1.428-0.388-2.366c0-0.754,0.153-1.49,0.455-2.208C49.553,58.6,50,57.96,50.587,57.399
			c0.589-0.562,1.312-1.01,2.167-1.346s1.835-0.503,2.938-0.503c0.616,0,1.216,0.047,1.802,0.145
			c0.583,0.097,1.137,0.239,1.661,0.428s1.014,0.414,1.471,0.676c0.454,0.263,0.862,0.559,1.221,0.89L60.688,59.854z"/>
		<path fill="#E5007D" d="M77.301,55.771v3.588h-8.249v4.691h6.318v3.449h-6.318v4.787h8.249v3.588H64.36V55.771H77.301z"/>
		<path fill="#E5007D" d="M84.478,68.437v7.438h-4.661V55.771h6.539c1.453,0,2.692,0.149,3.717,0.449
			c1.025,0.299,1.862,0.715,2.512,1.249c0.648,0.533,1.121,1.163,1.414,1.89c0.294,0.727,0.442,1.517,0.442,2.373
			c0,0.653-0.088,1.27-0.262,1.849c-0.176,0.579-0.437,1.115-0.78,1.607c-0.346,0.492-0.77,0.932-1.27,1.318
			c-0.501,0.386-1.079,0.703-1.732,0.951c0.314,0.157,0.604,0.35,0.878,0.58c0.271,0.229,0.507,0.511,0.709,0.841l4.278,6.996
			h-4.223c-0.782,0-1.343-0.296-1.684-0.885l-3.34-5.835c-0.146-0.257-0.319-0.441-0.517-0.553
			c-0.197-0.109-0.475-0.165-0.834-0.165H84.478z M84.478,65.222h1.878c0.633,0,1.175-0.08,1.62-0.241
			c0.445-0.16,0.812-0.384,1.098-0.669c0.284-0.285,0.491-0.618,0.62-1c0.128-0.382,0.193-0.794,0.193-1.235
			c0-0.884-0.288-1.572-0.862-2.069c-0.575-0.496-1.466-0.745-2.669-0.745h-1.878V65.222z"/>
	</g>
	<g>
		<path fill="#E5007D" d="M52.677,39.094l-0.012-0.001c0,0,2.062-0.924,2.062-3.142v-5.61l-8.325-3.234v9.516
			c0.009,0.407,0.146,1.911,1.625,2.804c0,0,1.398,0.974,3.116,0.248l-0.021,0.024L52.677,39.094z"/>
		<path fill="#E5007D" d="M38.522,24.043v0.002c-1.007-0.389-1.648,0.169-1.648,0.169c-0.677,0.485-0.709,1.243-0.709,1.354v17.552
			c0.007,0.21,0.079,0.888,0.745,1.33c0,0,0.647,0.521,1.551,0.168v0.001l3.972-1.543c0.407-0.189,2.058-1.074,2.058-3.14V26.363
			L38.522,24.043z"/>
		<path fill="#E5007D" d="M60.946,35.882c1.093-0.425,1.06-1.558,1.06-1.558c-0.038-1.222-1.06-1.562-1.06-1.562l0.018,0.004
			l-4.325-1.681v4.126c0.01,0.24,0.103,0.834,0.719,1.27c0,0,0.618,0.498,1.506,0.209L60.946,35.882L60.946,35.882z"/>
	</g>
</g>
</svg>
