<?xml version="1.0" encoding="utf-8"?>
<!-- Generator: Adobe Illustrator 16.0.0, SVG Export Plug-In . SVG Version: 6.00 Build 0)  -->
<!DOCTYPE svg PUBLIC "-//W3C//DTD SVG 1.1//EN" "http://www.w3.org/Graphics/SVG/1.1/DTD/svg11.dtd">
<svg version="1.1" id="Capa_1" xmlns="http://www.w3.org/2000/svg" xmlns:xlink="http://www.w3.org/1999/xlink" x="0px" y="0px"
	 width="100px" height="100px" viewBox="0 0 100 100" enable-background="new 0 0 100 100" xml:space="preserve">
<g>
	<path fill="#1E1E1E" d="M63.703,68.202l-0.05-0.007c0,0,7.867-3.527,7.867-11.987V34.804L39.759,22.458v36.312
		c0.036,1.555,0.556,7.294,6.2,10.702c0,0,5.336,3.711,11.891,0.944l-0.081,0.092L63.703,68.202z"/>
	<path fill="#1E1E1E" d="M9.69,10.771l0.005,0.009c-3.846-1.489-6.292,0.642-6.292,0.642c-2.587,1.856-2.7,4.745-2.703,5.171v66.973
		c0.023,0.803,0.297,3.388,2.839,5.073c0,0,2.473,1.984,5.923,0.644L9.46,89.285l15.151-5.889c1.559-0.718,7.851-4.095,7.851-11.976
		V19.622L9.69,10.771z"/>
	<path fill="#1E1E1E" d="M95.253,55.941C99.422,54.321,99.299,50,99.299,50c-0.141-4.661-4.046-5.96-4.046-5.96l0.066,0.014
		l-16.501-6.415v15.749c0.038,0.914,0.39,3.184,2.741,4.846c0,0,2.364,1.896,5.751,0.797L95.253,55.941L95.253,55.941z"/>
</g>
</svg>
