<?xml version="1.0" encoding="utf-8"?>
<!-- Generator: Adobe Illustrator 16.0.0, SVG Export Plug-In . SVG Version: 6.00 Build 0)  -->
<!DOCTYPE svg PUBLIC "-//W3C//DTD SVG 1.1//EN" "http://www.w3.org/Graphics/SVG/1.1/DTD/svg11.dtd">
<svg version="1.1" id="Capa_1" xmlns="http://www.w3.org/2000/svg" xmlns:xlink="http://www.w3.org/1999/xlink" x="0px" y="0px"
	 width="100px" height="100px" viewBox="0 0 100 100" enable-background="new 0 0 100 100" xml:space="preserve">
<g>
	<path fill="#FFFFFF" d="M96.739,50c0,25.813-20.916,46.739-46.739,46.739C24.197,96.739,3.261,75.813,3.261,50
		C3.261,24.187,24.197,3.261,50,3.261C75.823,3.261,96.739,24.187,96.739,50z"/>
	<path fill="#C4C4C4" d="M50,98.329C23.363,98.329,1.671,76.647,1.671,50S23.363,1.671,50,1.671
		c26.638,0,48.329,21.681,48.329,48.329S76.638,98.329,50,98.329z M50,4.84C25.111,4.84,4.85,25.101,4.85,50S25.111,95.16,50,95.16
		c24.909,0,45.15-20.261,45.15-45.16S74.909,4.84,50,4.84z"/>
</g>
</svg>
