<?xml version="1.0" encoding="utf-8"?>
<!-- Generator: Adobe Illustrator 16.0.0, SVG Export Plug-In . SVG Version: 6.00 Build 0)  -->
<!DOCTYPE svg PUBLIC "-//W3C//DTD SVG 1.1//EN" "http://www.w3.org/Graphics/SVG/1.1/DTD/svg11.dtd">
<svg version="1.1" id="Capa_1" xmlns="http://www.w3.org/2000/svg" xmlns:xlink="http://www.w3.org/1999/xlink" x="0px" y="0px"
	 width="500px" height="500px" viewBox="0 0 500 500" enable-background="new 0 0 500 500" xml:space="preserve">
<g>
	<g>
		<path fill="#E6007E" d="M197.007,250c0,9.263,0.112,16.771-4.996,16.771c-5.108,0-9.248-7.509-9.248-16.771
			c0-9.262,4.139-16.771,9.248-16.771C197.119,233.229,197.007,240.738,197.007,250z"/>
		<path fill="#E6007E" d="M192.011,233.229c0,0-9.548-0.469-18.499,16.771v46.776h6.265l-0.045-32.854c0,0,5.118,2.381,12.279,2.85"
			/>
		<rect x="175.823" y="294.986" fill="#E6007E" width="1.64" height="203.173"/>
	</g>
	<path fill="#C6C6C6" d="M234.785,203.992c-24.787,0-44.877,20.092-44.877,44.876c0,24.787,20.091,44.88,44.877,44.88
		c24.783,0,44.877-20.093,44.877-44.88C279.662,224.084,259.568,203.992,234.785,203.992z M251.291,234.648
		c2.977,0,5.389,2.413,5.389,5.391c0,2.976-2.412,5.39-5.389,5.39c-2.977,0-5.39-2.414-5.39-5.39
		C245.901,237.062,248.314,234.648,251.291,234.648z M218.276,234.648c2.977,0,5.39,2.413,5.39,5.391c0,2.976-2.413,5.39-5.39,5.39
		s-5.389-2.414-5.389-5.39C212.887,237.062,215.299,234.648,218.276,234.648z M259.48,259.948
		c-13.047,15.669-36.116,15.693-49.395,0.299c-2.119-2.452,1.44-6.043,3.573-3.571c11.613,13.459,30.861,13.375,42.249-0.301
		C257.994,253.868,261.551,257.464,259.48,259.948z"/>
	<g>
		<path fill="#FFFFFF" d="M302.994,250c0-9.263-0.113-16.771,4.996-16.771c5.107,0,9.246,7.509,9.246,16.771
			c0,9.262-4.139,16.771-9.246,16.771C302.881,266.771,302.994,259.262,302.994,250z"/>
		<path fill="#FFFFFF" d="M307.99,266.771c0,0,9.547,0.469,18.498-16.771v-46.775h-6.266l0.045,32.854c0,0-5.117-2.381-12.277-2.85"
			/>
		<rect x="322.538" y="1.841" fill="#FFFFFF" width="1.641" height="203.174"/>
	</g>
</g>
</svg>
