<?xml version="1.0" encoding="utf-8"?>
<!-- Generator: Adobe Illustrator 16.0.0, SVG Export Plug-In . SVG Version: 6.00 Build 0)  -->
<!DOCTYPE svg PUBLIC "-//W3C//DTD SVG 1.1//EN" "http://www.w3.org/Graphics/SVG/1.1/DTD/svg11.dtd">
<svg version="1.1" id="Capa_1" xmlns="http://www.w3.org/2000/svg" xmlns:xlink="http://www.w3.org/1999/xlink" x="0px" y="0px"
	 width="77.605px" height="77.608px" viewBox="0 0 77.605 77.608" enable-background="new 0 0 77.605 77.608" xml:space="preserve">
<path fill="#C4C4C4" d="M38.804,0C17.371,0,0,17.373,0,38.801c0,21.434,17.372,38.807,38.804,38.807
	c21.428,0,38.801-17.373,38.801-38.807C77.605,17.373,60.232,0,38.804,0z M53.074,26.507c2.574,0,4.66,2.086,4.66,4.662
	c0,2.572-2.086,4.66-4.66,4.66s-4.659-2.088-4.659-4.66C48.415,28.594,50.5,26.507,53.074,26.507z M24.528,26.507
	c2.574,0,4.661,2.086,4.661,4.662c0,2.572-2.087,4.66-4.661,4.66c-2.574,0-4.659-2.088-4.659-4.66
	C19.869,28.594,21.954,26.507,24.528,26.507z M60.156,48.383c-11.281,13.547-31.229,13.567-42.71,0.258
	c-1.832-2.121,1.245-5.225,3.09-3.088c10.041,11.637,26.685,11.563,36.53-0.26C58.871,43.125,61.945,46.235,60.156,48.383z"/>
</svg>
