<?xml version="1.0" encoding="utf-8"?>
<!-- Generator: Adobe Illustrator 16.0.0, SVG Export Plug-In . SVG Version: 6.00 Build 0)  -->
<!DOCTYPE svg PUBLIC "-//W3C//DTD SVG 1.1//EN" "http://www.w3.org/Graphics/SVG/1.1/DTD/svg11.dtd">
<svg version="1.1" id="Capa_1" xmlns="http://www.w3.org/2000/svg" xmlns:xlink="http://www.w3.org/1999/xlink" x="0px" y="0px"
	 width="auto" height="777px" viewBox="0 0 133 187" enable-background="new 0 0 133 187" xml:space="preserve">
<g>
	<path fill="#C4007B" d="M20.679,96.754c0,8.008,0.098,14.5-4.319,14.5s-7.996-6.492-7.996-14.5c0-8.009,3.578-14.503,7.996-14.503
		C20.776,82.251,20.679,88.745,20.679,96.754z"/>
	<path fill="#C4007B" d="M16.359,82.251c0,0-8.256-0.404-15.995,14.503v40.445h5.417l-0.039-28.408c0,0,4.426,2.059,10.617,2.465"/>
	<rect x="2.363" y="135.65" fill="#C4007B" width="1.417" height="51.35"/>
	<path fill="#C4C4C4" d="M53.345,56.972c-21.433,0-38.804,17.373-38.804,38.801c0,21.434,17.372,38.807,38.804,38.807
		c21.429,0,38.802-17.373,38.802-38.807C92.146,74.345,74.773,56.972,53.345,56.972z M67.615,83.479c2.574,0,4.66,2.086,4.66,4.662
		c0,2.572-2.086,4.66-4.66,4.66s-4.659-2.088-4.659-4.66C62.956,85.566,65.041,83.479,67.615,83.479z M39.069,83.479
		c2.574,0,4.661,2.086,4.661,4.662c0,2.572-2.087,4.66-4.661,4.66s-4.659-2.088-4.659-4.66
		C34.41,85.566,36.495,83.479,39.069,83.479z M74.697,105.355c-11.281,13.547-31.228,13.568-42.71,0.258
		c-1.832-2.121,1.245-5.225,3.09-3.088c10.041,11.637,26.684,11.564,36.53-0.26C73.412,100.098,76.486,103.207,74.697,105.355z"/>
	<path fill="#FFFFFF" d="M112.32,96.754c0-8.01-0.096-14.503,4.32-14.503s7.996,6.494,7.996,14.503c0,8.008-3.58,14.5-7.996,14.5
		S112.32,104.762,112.32,96.754z"/>
	<path fill="#FFFFFF" d="M116.641,111.254c0,0,8.256,0.406,15.994-14.5V56.309h-5.418l0.039,28.408c0,0-4.424-2.059-10.615-2.466"/>
	<rect x="129.221" fill="#FFFFFF" width="1.418" height="57.857"/>
</g>
</svg>
